<svg width="1400" height="560" viewBox="0 0 1400 560" fill="none" xmlns="http://www.w3.org/2000/svg">
  <rect width="1400" height="560" rx="40" fill="#1C262B"/>
  <rect x="24" y="24" width="1352" height="512" rx="32" fill="url(#paint0_linear)" stroke="rgba(253,241,238,0.12)"/>
  <circle cx="1140" cy="140" r="120" fill="rgba(239,70,35,0.18)"/>
  <circle cx="1180" cy="420" r="170" fill="rgba(253,241,238,0.05)"/>
  <text x="84" y="160" fill="#EF4623" font-family="Space Grotesk, Arial, sans-serif" font-size="22" font-weight="700" letter-spacing="4">TENBRAINS FOR X</text>
  <text x="84" y="240" fill="#FDF1EE" font-family="Newsreader, Georgia, serif" font-size="74" font-weight="600">Analyze public X posts.</text>
  <text x="84" y="314" fill="#FDF1EE" font-family="Newsreader, Georgia, serif" font-size="74" font-weight="600">Save tagged insights.</text>
  <text x="84" y="384" fill="rgba(253,241,238,0.74)" font-family="Space Grotesk, Arial, sans-serif" font-size="26">Inline analysis on x.com with Tenbrains bookmarks behind it.</text>
  <rect x="84" y="428" width="274" height="56" rx="28" fill="#EF4623"/>
  <text x="129" y="464" fill="white" font-family="Space Grotesk, Arial, sans-serif" font-size="24" font-weight="700">Tenbrains for X</text>
  <rect x="760" y="92" width="500" height="336" rx="28" fill="rgba(28,38,43,0.92)" stroke="rgba(253,241,238,0.12)"/>
  <rect x="792" y="124" width="180" height="14" rx="7" fill="#EF4623"/>
  <rect x="792" y="154" width="320" height="20" rx="10" fill="rgba(253,241,238,0.08)"/>
  <rect x="792" y="192" width="408" height="14" rx="7" fill="rgba(253,241,238,0.16)"/>
  <rect x="792" y="220" width="364" height="14" rx="7" fill="rgba(253,241,238,0.16)"/>
  <rect x="792" y="248" width="300" height="14" rx="7" fill="rgba(253,241,238,0.16)"/>
  <rect x="792" y="290" width="118" height="34" rx="17" fill="rgba(253,241,238,0.08)"/>
  <rect x="924" y="290" width="126" height="34" rx="17" fill="rgba(253,241,238,0.08)"/>
  <rect x="1064" y="290" width="132" height="34" rx="17" fill="rgba(253,241,238,0.08)"/>
  <rect x="792" y="360" width="240" height="40" rx="20" fill="#EF4623"/>
  <text x="848" y="386" fill="white" font-family="Space Grotesk, Arial, sans-serif" font-size="18" font-weight="700">Save to Bookmarks</text>
  <defs>
    <linearGradient id="paint0_linear" x1="52" y1="32" x2="1348" y2="528" gradientUnits="userSpaceOnUse">
      <stop stop-color="#2D3B42"/>
      <stop offset="1" stop-color="#222D33"/>
    </linearGradient>
  </defs>
</svg>
