<svg width="440" height="280" viewBox="0 0 440 280" fill="none" xmlns="http://www.w3.org/2000/svg">
  <rect width="440" height="280" rx="32" fill="#1C262B"/>
  <rect x="16" y="16" width="408" height="248" rx="24" fill="url(#paint0_linear)" stroke="rgba(253,241,238,0.12)"/>
  <rect x="32" y="40" width="170" height="200" rx="18" fill="rgba(253,241,238,0.05)" stroke="rgba(253,241,238,0.12)"/>
  <rect x="50" y="62" width="120" height="14" rx="7" fill="#EF4623"/>
  <rect x="50" y="92" width="134" height="10" rx="5" fill="rgba(253,241,238,0.16)"/>
  <rect x="50" y="112" width="110" height="10" rx="5" fill="rgba(253,241,238,0.16)"/>
  <rect x="50" y="148" width="108" height="30" rx="15" fill="#EF4623"/>
  <rect x="220" y="40" width="188" height="200" rx="18" fill="rgba(28,38,43,0.92)" stroke="rgba(253,241,238,0.12)"/>
  <rect x="242" y="62" width="82" height="10" rx="5" fill="#EF4623"/>
  <rect x="242" y="88" width="120" height="24" rx="12" fill="rgba(253,241,238,0.08)"/>
  <rect x="242" y="124" width="140" height="10" rx="5" fill="rgba(253,241,238,0.16)"/>
  <rect x="242" y="144" width="130" height="10" rx="5" fill="rgba(253,241,238,0.16)"/>
  <rect x="242" y="164" width="108" height="10" rx="5" fill="rgba(253,241,238,0.16)"/>
  <rect x="242" y="198" width="134" height="30" rx="15" fill="#EF4623"/>
  <text x="50" y="210" fill="#FDF1EE" font-family="Newsreader, Georgia, serif" font-size="18" font-weight="600">Tenbrains for X</text>
  <text x="50" y="232" fill="rgba(253,241,238,0.72)" font-family="Space Grotesk, Arial, sans-serif" font-size="13">Analyze public X posts and save tagged insights.</text>
  <defs>
    <linearGradient id="paint0_linear" x1="32" y1="24" x2="408" y2="256" gradientUnits="userSpaceOnUse">
      <stop stop-color="#2D3B42"/>
      <stop offset="1" stop-color="#222D33"/>
    </linearGradient>
  </defs>
</svg>
